<svg preserveAspectRatio="none" overflow="visible" style="display: block;" width="18" height="18" viewBox="0 0 18 18" fill="none" xmlns="http://www.w3.org/2000/svg">
<g id="Upload Icon">
<path id="Vector" d="M9 6.75C8.55499 6.75 8.11998 6.88196 7.74997 7.12919C7.37996 7.37643 7.09157 7.72783 6.92127 8.13896C6.75097 8.5501 6.70642 9.0025 6.79323 9.43895C6.88005 9.87541 7.09434 10.2763 7.40901 10.591C7.72368 10.9057 8.12459 11.12 8.56105 11.2068C8.9975 11.2936 9.4499 11.249 9.86104 11.0787C10.2722 10.9084 10.6236 10.62 10.8708 10.25C11.118 9.88002 11.25 9.44501 11.25 9C11.25 8.40326 11.0129 7.83097 10.591 7.40901C10.169 6.98705 9.59674 6.75 9 6.75ZM9 10.125C8.7775 10.125 8.55999 10.059 8.37498 9.9354C8.18998 9.81179 8.04578 9.63609 7.96064 9.43052C7.87549 9.22495 7.85321 8.99875 7.89662 8.78052C7.94003 8.56229 8.04717 8.36184 8.20451 8.20451C8.36184 8.04717 8.5623 7.94002 8.78052 7.89662C8.99875 7.85321 9.22495 7.87549 9.43052 7.96064C9.63609 8.04578 9.81179 8.18998 9.9354 8.37498C10.059 8.55999 10.125 8.7775 10.125 9C10.125 9.29837 10.0065 9.58452 9.7955 9.79549C9.58452 10.0065 9.29837 10.125 9 10.125Z" fill="white"/>
</g>
</svg>
